# xmcd
#
# Track frame offsets: 
#        150
#        13118
#        28852
#        43647
#        53030
#        66181
#        78047
#        85694
#        98119
#        107836
#        116318
#        127320
#        138069
#        143461
#        148436
#        162797
#        170991
#        183428
#        192091
#        200199
#        214567
#
# Disc length: 2899 seconds
#
# Revision: 1
# Processed by: cddbd v1.5.2PL0 Copyright (c) Steve Scherf et al.
# Submitted via: ExactAudioCopy v1.3
#
DISCID=2c0b5115
DTITLE=Ray Price and the Cherokee Cowboys - In A Honky Tonk Mood (Jasm
DTITLE=ine)
DYEAR=2000
DGENRE=Country and Western
TTITLE0=I'll Be There (If You Ever Want Me)
TTITLE1=Much Too Young To Die
TTITLE2=If You Don't Somebody Else Will
TTITLE3=Don't Let The Stars Get In Your Eyes
TTITLE4=City Lights
TTITLE5=Invitation To The Blues
TTITLE6=You Done Me Wrong
TTITLE7=Release Me
TTITLE8=Run Boy
TTITLE9=Take These Chains From My Heart
TTITLE10=Curtain In The Window
TTITLE11=I'll Sail My Ship Alone
TTITLE12=Steel Guitar Jubilee (The Cherokee Cowboys)
TTITLE13=Back Up And Push (Tommy Jackson "Fiddle")
TTITLE14=San Antonio Rose
TTITLE15=I'll Keep On Loving You
TTITLE16=(There'll Be) Peace In The Valley (The Jordanaires)
TTITLE17=Somebody Is Taking My Place
TTITLE18=Home In San Antone
TTITLE19=The Old Rugged Cross (The Jordanaires)
TTITLE20=Sign Off
EXTD=
EXTT0=
EXTT1=
EXTT2=
EXTT3=
EXTT4=
EXTT5=
EXTT6=
EXTT7=
EXTT8=
EXTT9=
EXTT10=
EXTT11=
EXTT12=
EXTT13=
EXTT14=
EXTT15=
EXTT16=
EXTT17=
EXTT18=
EXTT19=
EXTT20=
PLAYORDER=
